<?xml version="1.0" standalone="no"?>
<!DOCTYPE svg PUBLIC "-//W3C//DTD SVG 20010904//EN"
 "http://www.w3.org/TR/2001/REC-SVG-20010904/DTD/svg10.dtd">
<svg version="1.0" xmlns="http://www.w3.org/2000/svg"
 width="581.000000pt" height="581.000000pt" viewBox="0 0 581.000000 581.000000"
 preserveAspectRatio="xMidYMid meet">
<metadata>
Created by potrace 1.14, written by Peter Selinger 2001-2017
</metadata>
<g transform="translate(0.000000,581.000000) scale(0.100000,-0.100000)"
fill="#000000" stroke="none">
<path d="M3140 5320 c0 -5 -7 -10 -16 -10 -31 0 -167 -52 -221 -85 -50 -30
-129 -92 -175 -137 -29 -29 -21 -55 35 -116 29 -31 66 -79 82 -105 17 -26 39
-50 50 -53 12 -3 50 8 87 25 230 103 426 30 572 -212 69 -114 124 -287 152
-474 6 -46 -6 -57 -23 -20 -16 33 -107 134 -156 171 -76 58 -153 91 -234 101
-106 13 -125 -23 -40 -79 163 -106 308 -345 425 -698 41 -125 59 -168 71 -168
33 0 164 153 211 245 14 27 71 161 90 210 18 48 40 134 40 158 0 14 7 52 15
84 29 111 13 385 -30 503 -7 19 -18 53 -25 75 -44 137 -149 296 -266 403 -71
66 -267 172 -316 172 -16 0 -28 5 -28 10 0 6 -57 10 -150 10 -93 0 -150 -4
-150 -10z"/>
<path d="M1830 5150 c-75 -9 -216 -60 -285 -103 -46 -28 -114 -86 -167 -142
-108 -114 -186 -317 -187 -491 -1 -87 5 -92 129 -106 176 -19 178 -18 199 22
10 19 27 55 37 80 66 164 183 239 373 240 170 0 330 -59 551 -205 108 -71 115
-89 26 -66 -107 27 -207 18 -336 -31 -49 -18 -147 -88 -161 -116 -23 -42 -1
-48 106 -28 82 16 107 17 178 6 193 -27 367 -87 621 -214 70 -36 135 -62 142
-59 11 4 14 28 14 99 0 90 -17 181 -45 249 -7 17 -20 50 -28 75 -50 147 -139
288 -269 425 -62 64 -141 140 -177 167 -69 52 -251 148 -280 148 -9 0 -21 4
-26 9 -35 32 -289 57 -415 41z"/>
<path d="M4290 4485 c-7 -9 -17 -56 -21 -107 -5 -50 -11 -105 -15 -123 -11
-59 1 -73 99 -119 143 -69 191 -120 247 -263 8 -22 11 -67 8 -135 -5 -115 -31
-203 -100 -342 -55 -109 -166 -276 -184 -276 -12 0 -13 4 -2 23 7 14 12 70 12
157 1 163 -16 223 -84 308 -54 67 -75 81 -91 65 -9 -9 -9 -33 1 -102 23 -164
-3 -315 -94 -542 -69 -173 -91 -219 -138 -298 -25 -41 -38 -74 -36 -90 3 -25
6 -26 72 -29 131 -6 362 66 536 166 121 69 142 85 261 199 224 215 349 493
349 774 0 97 -38 261 -78 335 -9 18 -26 49 -37 70 -11 21 -58 77 -105 125 -70
71 -100 93 -170 126 -47 22 -112 47 -145 57 -33 9 -74 21 -91 26 -50 16 -179
13 -194 -5z"/>
<path d="M1190 4160 c-41 -5 -93 -14 -115 -20 -22 -7 -62 -19 -90 -28 -145
-44 -353 -181 -447 -296 -56 -68 -138 -221 -157 -296 -7 -25 -17 -59 -22 -76
-12 -41 -12 -201 1 -209 6 -3 10 -16 10 -28 0 -43 52 -181 96 -256 46 -80 143
-191 166 -191 16 0 46 20 113 75 28 23 67 52 87 64 20 12 40 30 43 40 3 11 -7
47 -24 84 -37 80 -54 196 -41 267 16 85 58 156 132 225 120 111 265 171 543
226 28 5 58 12 68 15 33 10 17 -21 -20 -41 -94 -50 -197 -185 -233 -305 -43
-146 -10 -223 53 -123 67 105 232 239 373 303 27 13 69 32 94 43 25 11 126 48
225 81 209 71 216 77 143 144 -140 129 -364 238 -583 286 -87 18 -315 27 -415
16z"/>
<path d="M2380 3483 c-21 -11 -43 -34 -55 -58 -19 -38 -20 -60 -20 -555 0
-488 1 -518 19 -559 22 -48 58 -71 111 -71 26 0 167 66 554 259 438 219 523
266 550 298 38 45 40 86 9 134 -20 29 -96 71 -544 296 -286 144 -536 264 -555
268 -23 4 -45 0 -69 -12z"/>
<path d="M1577 3114 c-126 -17 -212 -43 -337 -102 -110 -52 -308 -191 -376
-264 -109 -117 -229 -295 -254 -377 -5 -14 -18 -50 -29 -80 -11 -30 -27 -94
-36 -143 -42 -244 11 -451 167 -652 79 -101 233 -200 375 -238 92 -25 254 -31
275 -10 7 7 16 53 20 110 4 53 10 114 14 135 4 22 2 43 -5 51 -6 7 -52 30
-102 51 -128 53 -184 110 -228 229 -36 102 -39 156 -12 277 24 111 80 240 160
369 97 159 128 188 104 98 -22 -80 -12 -244 19 -330 36 -97 113 -192 153 -186
23 3 23 8 -1 128 -21 104 -12 183 41 375 30 110 66 198 147 362 48 97 78 171
76 185 -4 29 -34 31 -171 12z"/>
<path d="M4949 2944 c-18 -20 -65 -57 -104 -83 -47 -31 -71 -54 -73 -69 -2
-13 10 -58 27 -101 67 -178 62 -254 -31 -396 -78 -119 -266 -225 -488 -274
-30 -7 -81 -19 -112 -27 -32 -8 -70 -14 -84 -14 -26 0 -27 0 -9 20 10 11 24
20 30 20 7 0 45 30 84 66 112 103 171 220 171 336 0 102 -22 102 -90 1 -82
-123 -202 -209 -453 -322 -91 -42 -291 -112 -354 -126 -76 -16 -65 -59 37
-139 166 -131 348 -209 590 -251 300 -53 675 34 871 201 35 29 67 54 70 54 7
0 117 133 134 162 58 97 105 221 105 275 0 23 5 45 10 48 6 3 10 48 10 100 0
52 -4 97 -10 100 -5 3 -10 15 -10 26 0 31 -39 140 -71 195 -66 117 -167 234
-201 234 -8 0 -30 -16 -49 -36z"/>
<path d="M1833 2239 c-99 -106 -216 -320 -258 -468 -53 -191 -67 -385 -40
-559 36 -225 123 -405 274 -565 114 -122 341 -237 467 -237 24 0 46 -4 49 -10
8 -13 102 -13 110 0 3 6 19 10 34 10 123 0 461 203 461 277 0 15 -11 34 -29
49 -16 13 -45 48 -65 77 -70 102 -80 110 -120 103 -19 -4 -61 -19 -93 -34 -50
-23 -71 -26 -158 -27 -91 0 -105 3 -158 30 -103 51 -186 141 -240 260 -41 87
-47 102 -62 155 -9 30 -21 65 -26 78 -5 13 -9 35 -9 51 0 15 -6 47 -14 72 -17
51 -27 129 -18 129 4 0 22 -24 40 -53 44 -69 78 -106 144 -155 66 -50 124 -76
203 -93 79 -16 115 -7 115 27 0 14 -7 27 -17 31 -59 23 -167 130 -243 243 -44
65 -100 166 -100 180 0 6 -13 38 -29 72 -36 79 -73 181 -102 278 -24 85 -43
120 -64 120 -8 0 -31 -18 -52 -41z"/>
<path d="M2574 1798 c-4 -6 -7 -46 -5 -87 9 -386 287 -813 654 -1007 213 -112
431 -147 640 -104 228 46 407 182 503 380 61 126 94 245 94 341 0 75 -21 93
-122 101 -45 4 -109 10 -140 14 l-58 6 -15 -38 c-67 -168 -116 -228 -234 -287
-64 -31 -70 -32 -186 -31 -122 1 -141 5 -292 62 -29 11 -91 44 -138 74 -47 29
-100 62 -118 73 -96 58 -114 89 -38 67 65 -20 239 -15 315 8 90 28 191 105
191 146 0 33 -6 34 -110 14 -102 -20 -251 -3 -400 45 -138 44 -192 67 -358
151 -93 46 -170 84 -172 84 -2 0 -7 -5 -11 -12z"/>
</g>
</svg>
